<mxfile host="app.diagrams.net" agent="Mozilla/5.0 (Windows NT 10.0; Win64; x64; rv:131.0) Gecko/20100101 Firefox/131.0" version="24.8.3">
  <diagram name="Page-1" id="mVZVvIf0ug9FXP84BacD">
    <mxGraphModel dx="1050" dy="735" grid="1" gridSize="10" guides="1" tooltips="1" connect="1" arrows="1" fold="1" page="1" pageScale="1" pageWidth="850" pageHeight="1100" math="0" shadow="0">
      <root>
        <mxCell id="0" />
        <mxCell id="1" parent="0" />
        <mxCell id="HVvRkFTWR_BCbnAEF5Q8-2" value="" style="rounded=0;whiteSpace=wrap;html=1;" vertex="1" parent="1">
          <mxGeometry x="220" y="40" width="480" height="690" as="geometry" />
        </mxCell>
        <mxCell id="HVvRkFTWR_BCbnAEF5Q8-29" style="edgeStyle=none;rounded=0;orthogonalLoop=1;jettySize=auto;html=1;exitX=0.5;exitY=0.5;exitDx=0;exitDy=0;exitPerimeter=0;entryX=0;entryY=0.5;entryDx=0;entryDy=0;" edge="1" parent="1" source="HVvRkFTWR_BCbnAEF5Q8-3" target="HVvRkFTWR_BCbnAEF5Q8-7">
          <mxGeometry relative="1" as="geometry" />
        </mxCell>
        <mxCell id="HVvRkFTWR_BCbnAEF5Q8-30" style="edgeStyle=none;rounded=0;orthogonalLoop=1;jettySize=auto;html=1;exitX=0.5;exitY=0.5;exitDx=0;exitDy=0;exitPerimeter=0;entryX=0;entryY=0.5;entryDx=0;entryDy=0;" edge="1" parent="1" source="HVvRkFTWR_BCbnAEF5Q8-3" target="HVvRkFTWR_BCbnAEF5Q8-8">
          <mxGeometry relative="1" as="geometry" />
        </mxCell>
        <mxCell id="HVvRkFTWR_BCbnAEF5Q8-31" style="edgeStyle=none;rounded=0;orthogonalLoop=1;jettySize=auto;html=1;exitX=0.5;exitY=0.5;exitDx=0;exitDy=0;exitPerimeter=0;entryX=0;entryY=0.5;entryDx=0;entryDy=0;" edge="1" parent="1" source="HVvRkFTWR_BCbnAEF5Q8-3" target="HVvRkFTWR_BCbnAEF5Q8-9">
          <mxGeometry relative="1" as="geometry" />
        </mxCell>
        <mxCell id="HVvRkFTWR_BCbnAEF5Q8-32" style="edgeStyle=none;rounded=0;orthogonalLoop=1;jettySize=auto;html=1;exitX=0.5;exitY=0.5;exitDx=0;exitDy=0;exitPerimeter=0;entryX=0;entryY=0.5;entryDx=0;entryDy=0;" edge="1" parent="1" source="HVvRkFTWR_BCbnAEF5Q8-3" target="HVvRkFTWR_BCbnAEF5Q8-10">
          <mxGeometry relative="1" as="geometry" />
        </mxCell>
        <mxCell id="HVvRkFTWR_BCbnAEF5Q8-33" style="edgeStyle=none;rounded=0;orthogonalLoop=1;jettySize=auto;html=1;exitX=0.5;exitY=0.5;exitDx=0;exitDy=0;exitPerimeter=0;entryX=0;entryY=0.5;entryDx=0;entryDy=0;" edge="1" parent="1" source="HVvRkFTWR_BCbnAEF5Q8-3" target="HVvRkFTWR_BCbnAEF5Q8-11">
          <mxGeometry relative="1" as="geometry">
            <Array as="points">
              <mxPoint x="270" y="360" />
            </Array>
          </mxGeometry>
        </mxCell>
        <mxCell id="HVvRkFTWR_BCbnAEF5Q8-34" style="edgeStyle=none;rounded=0;orthogonalLoop=1;jettySize=auto;html=1;exitX=0.5;exitY=0.5;exitDx=0;exitDy=0;exitPerimeter=0;entryX=0;entryY=0.5;entryDx=0;entryDy=0;" edge="1" parent="1" source="HVvRkFTWR_BCbnAEF5Q8-3" target="HVvRkFTWR_BCbnAEF5Q8-12">
          <mxGeometry relative="1" as="geometry">
            <Array as="points">
              <mxPoint x="250" y="380" />
            </Array>
          </mxGeometry>
        </mxCell>
        <mxCell id="HVvRkFTWR_BCbnAEF5Q8-35" style="edgeStyle=none;rounded=0;orthogonalLoop=1;jettySize=auto;html=1;exitX=0.5;exitY=0.5;exitDx=0;exitDy=0;exitPerimeter=0;entryX=0;entryY=0.5;entryDx=0;entryDy=0;" edge="1" parent="1" source="HVvRkFTWR_BCbnAEF5Q8-3" target="HVvRkFTWR_BCbnAEF5Q8-13">
          <mxGeometry relative="1" as="geometry">
            <Array as="points">
              <mxPoint x="240" y="410" />
            </Array>
          </mxGeometry>
        </mxCell>
        <mxCell id="HVvRkFTWR_BCbnAEF5Q8-3" value="&lt;div&gt;User&lt;/div&gt;&lt;div&gt;[Annica]&lt;/div&gt;" style="shape=umlActor;verticalLabelPosition=bottom;verticalAlign=top;html=1;outlineConnect=0;" vertex="1" parent="1">
          <mxGeometry x="120" y="200" width="50" height="90" as="geometry" />
        </mxCell>
        <mxCell id="HVvRkFTWR_BCbnAEF5Q8-36" style="edgeStyle=none;rounded=0;orthogonalLoop=1;jettySize=auto;html=1;exitX=0.5;exitY=0.5;exitDx=0;exitDy=0;exitPerimeter=0;entryX=0;entryY=0.5;entryDx=0;entryDy=0;" edge="1" parent="1" source="HVvRkFTWR_BCbnAEF5Q8-4" target="HVvRkFTWR_BCbnAEF5Q8-14">
          <mxGeometry relative="1" as="geometry" />
        </mxCell>
        <mxCell id="HVvRkFTWR_BCbnAEF5Q8-37" style="edgeStyle=none;rounded=0;orthogonalLoop=1;jettySize=auto;html=1;exitX=0.5;exitY=0.5;exitDx=0;exitDy=0;exitPerimeter=0;entryX=0;entryY=0.5;entryDx=0;entryDy=0;" edge="1" parent="1" source="HVvRkFTWR_BCbnAEF5Q8-4" target="HVvRkFTWR_BCbnAEF5Q8-15">
          <mxGeometry relative="1" as="geometry" />
        </mxCell>
        <mxCell id="HVvRkFTWR_BCbnAEF5Q8-38" style="edgeStyle=none;rounded=0;orthogonalLoop=1;jettySize=auto;html=1;exitX=0.5;exitY=0.5;exitDx=0;exitDy=0;exitPerimeter=0;entryX=0;entryY=0.5;entryDx=0;entryDy=0;" edge="1" parent="1" source="HVvRkFTWR_BCbnAEF5Q8-4" target="HVvRkFTWR_BCbnAEF5Q8-16">
          <mxGeometry relative="1" as="geometry" />
        </mxCell>
        <mxCell id="HVvRkFTWR_BCbnAEF5Q8-39" style="edgeStyle=none;rounded=0;orthogonalLoop=1;jettySize=auto;html=1;exitX=0.5;exitY=0.5;exitDx=0;exitDy=0;exitPerimeter=0;entryX=0;entryY=1;entryDx=0;entryDy=0;" edge="1" parent="1" source="HVvRkFTWR_BCbnAEF5Q8-4" target="HVvRkFTWR_BCbnAEF5Q8-13">
          <mxGeometry relative="1" as="geometry">
            <mxPoint x="420" y="480" as="targetPoint" />
          </mxGeometry>
        </mxCell>
        <mxCell id="HVvRkFTWR_BCbnAEF5Q8-4" value="&lt;div&gt;Admin&lt;/div&gt;&lt;div&gt;[Jasiara]&lt;br&gt;&lt;/div&gt;" style="shape=umlActor;verticalLabelPosition=bottom;verticalAlign=top;html=1;outlineConnect=0;" vertex="1" parent="1">
          <mxGeometry x="120" y="550" width="50" height="100" as="geometry" />
        </mxCell>
        <mxCell id="HVvRkFTWR_BCbnAEF5Q8-42" style="edgeStyle=none;rounded=0;orthogonalLoop=1;jettySize=auto;html=1;exitX=0.5;exitY=0.5;exitDx=0;exitDy=0;exitPerimeter=0;entryX=1;entryY=0.5;entryDx=0;entryDy=0;" edge="1" parent="1" source="HVvRkFTWR_BCbnAEF5Q8-5" target="HVvRkFTWR_BCbnAEF5Q8-18">
          <mxGeometry relative="1" as="geometry" />
        </mxCell>
        <mxCell id="HVvRkFTWR_BCbnAEF5Q8-43" style="edgeStyle=none;rounded=0;orthogonalLoop=1;jettySize=auto;html=1;exitX=0.5;exitY=0.5;exitDx=0;exitDy=0;exitPerimeter=0;entryX=1;entryY=0.5;entryDx=0;entryDy=0;" edge="1" parent="1" source="HVvRkFTWR_BCbnAEF5Q8-5" target="HVvRkFTWR_BCbnAEF5Q8-19">
          <mxGeometry relative="1" as="geometry" />
        </mxCell>
        <mxCell id="HVvRkFTWR_BCbnAEF5Q8-44" style="edgeStyle=none;rounded=0;orthogonalLoop=1;jettySize=auto;html=1;exitX=0.5;exitY=0.5;exitDx=0;exitDy=0;exitPerimeter=0;entryX=1;entryY=0.5;entryDx=0;entryDy=0;" edge="1" parent="1" source="HVvRkFTWR_BCbnAEF5Q8-5" target="HVvRkFTWR_BCbnAEF5Q8-20">
          <mxGeometry relative="1" as="geometry" />
        </mxCell>
        <mxCell id="HVvRkFTWR_BCbnAEF5Q8-45" style="edgeStyle=none;rounded=0;orthogonalLoop=1;jettySize=auto;html=1;exitX=0.5;exitY=0.5;exitDx=0;exitDy=0;exitPerimeter=0;entryX=1;entryY=0.5;entryDx=0;entryDy=0;" edge="1" parent="1" source="HVvRkFTWR_BCbnAEF5Q8-5" target="HVvRkFTWR_BCbnAEF5Q8-12">
          <mxGeometry relative="1" as="geometry">
            <Array as="points">
              <mxPoint x="630" y="410" />
            </Array>
          </mxGeometry>
        </mxCell>
        <mxCell id="HVvRkFTWR_BCbnAEF5Q8-46" style="edgeStyle=none;rounded=0;orthogonalLoop=1;jettySize=auto;html=1;exitX=0.5;exitY=0.5;exitDx=0;exitDy=0;exitPerimeter=0;entryX=1;entryY=0.5;entryDx=0;entryDy=0;" edge="1" parent="1" source="HVvRkFTWR_BCbnAEF5Q8-5" target="HVvRkFTWR_BCbnAEF5Q8-13">
          <mxGeometry relative="1" as="geometry">
            <Array as="points">
              <mxPoint x="650" y="440" />
            </Array>
          </mxGeometry>
        </mxCell>
        <mxCell id="HVvRkFTWR_BCbnAEF5Q8-47" style="edgeStyle=none;rounded=0;orthogonalLoop=1;jettySize=auto;html=1;exitX=0.5;exitY=0.5;exitDx=0;exitDy=0;exitPerimeter=0;entryX=1;entryY=0.5;entryDx=0;entryDy=0;" edge="1" parent="1" source="HVvRkFTWR_BCbnAEF5Q8-5" target="HVvRkFTWR_BCbnAEF5Q8-11">
          <mxGeometry relative="1" as="geometry">
            <Array as="points">
              <mxPoint x="640" y="380" />
            </Array>
          </mxGeometry>
        </mxCell>
        <mxCell id="HVvRkFTWR_BCbnAEF5Q8-5" value="&lt;div&gt;Provider&lt;/div&gt;&lt;div&gt;[David]&lt;br&gt;&lt;/div&gt;" style="shape=umlActor;verticalLabelPosition=bottom;verticalAlign=top;html=1;outlineConnect=0;" vertex="1" parent="1">
          <mxGeometry x="750" y="220" width="60" height="120" as="geometry" />
        </mxCell>
        <mxCell id="HVvRkFTWR_BCbnAEF5Q8-6" value="SPARTAN AUCTION" style="strokeWidth=1;shadow=0;dashed=0;align=right;html=1;shape=mxgraph.mockup.text.textBox;fontColor=#666666;align=left;fontSize=17;spacingLeft=4;spacingTop=-3;whiteSpace=wrap;strokeColor=#666666;mainText=;verticalAlign=middle;fontStyle=1" vertex="1" parent="1">
          <mxGeometry x="370" y="50" width="180" height="30" as="geometry" />
        </mxCell>
        <mxCell id="HVvRkFTWR_BCbnAEF5Q8-7" value="Search for bids" style="ellipse;whiteSpace=wrap;html=1;" vertex="1" parent="1">
          <mxGeometry x="270" y="120" width="80" height="50" as="geometry" />
        </mxCell>
        <mxCell id="HVvRkFTWR_BCbnAEF5Q8-8" value="View previous bids" style="ellipse;whiteSpace=wrap;html=1;" vertex="1" parent="1">
          <mxGeometry x="270" y="180" width="80" height="50" as="geometry" />
        </mxCell>
        <mxCell id="HVvRkFTWR_BCbnAEF5Q8-9" value="&lt;div&gt;Write/review rating&lt;/div&gt;" style="ellipse;whiteSpace=wrap;html=1;" vertex="1" parent="1">
          <mxGeometry x="270" y="240" width="80" height="50" as="geometry" />
        </mxCell>
        <mxCell id="HVvRkFTWR_BCbnAEF5Q8-10" value="&lt;div&gt;Bid on auctions&lt;/div&gt;" style="ellipse;whiteSpace=wrap;html=1;" vertex="1" parent="1">
          <mxGeometry x="270" y="300" width="80" height="50" as="geometry" />
        </mxCell>
        <mxCell id="HVvRkFTWR_BCbnAEF5Q8-11" value="&lt;div&gt;modify profile&lt;/div&gt;" style="ellipse;whiteSpace=wrap;html=1;" vertex="1" parent="1">
          <mxGeometry x="420" y="360" width="80" height="50" as="geometry" />
        </mxCell>
        <mxCell id="HVvRkFTWR_BCbnAEF5Q8-12" value="sign up" style="ellipse;whiteSpace=wrap;html=1;" vertex="1" parent="1">
          <mxGeometry x="420" y="410" width="80" height="50" as="geometry" />
        </mxCell>
        <mxCell id="HVvRkFTWR_BCbnAEF5Q8-13" value="&lt;div&gt;sign in&lt;/div&gt;" style="ellipse;whiteSpace=wrap;html=1;" vertex="1" parent="1">
          <mxGeometry x="420" y="460" width="80" height="50" as="geometry" />
        </mxCell>
        <mxCell id="HVvRkFTWR_BCbnAEF5Q8-14" value="manage users" style="ellipse;whiteSpace=wrap;html=1;" vertex="1" parent="1">
          <mxGeometry x="270" y="540" width="80" height="50" as="geometry" />
        </mxCell>
        <mxCell id="HVvRkFTWR_BCbnAEF5Q8-15" value="&lt;div&gt;manage reviews&lt;/div&gt;" style="ellipse;whiteSpace=wrap;html=1;" vertex="1" parent="1">
          <mxGeometry x="360" y="590" width="80" height="50" as="geometry" />
        </mxCell>
        <mxCell id="HVvRkFTWR_BCbnAEF5Q8-16" value="look at stats of app" style="ellipse;whiteSpace=wrap;html=1;" vertex="1" parent="1">
          <mxGeometry x="270" y="650" width="80" height="50" as="geometry" />
        </mxCell>
        <mxCell id="HVvRkFTWR_BCbnAEF5Q8-17" value="&lt;div&gt;respond to reviews&lt;/div&gt;" style="ellipse;whiteSpace=wrap;html=1;" vertex="1" parent="1">
          <mxGeometry x="580" y="120" width="80" height="50" as="geometry" />
        </mxCell>
        <mxCell id="HVvRkFTWR_BCbnAEF5Q8-18" value="&lt;div&gt;view stats of auction&lt;/div&gt;" style="ellipse;whiteSpace=wrap;html=1;" vertex="1" parent="1">
          <mxGeometry x="580" y="180" width="80" height="50" as="geometry" />
        </mxCell>
        <mxCell id="HVvRkFTWR_BCbnAEF5Q8-19" value="&lt;div&gt;modify auction&lt;/div&gt;" style="ellipse;whiteSpace=wrap;html=1;" vertex="1" parent="1">
          <mxGeometry x="580" y="240" width="80" height="50" as="geometry" />
        </mxCell>
        <mxCell id="HVvRkFTWR_BCbnAEF5Q8-20" value="create auction" style="ellipse;whiteSpace=wrap;html=1;" vertex="1" parent="1">
          <mxGeometry x="580" y="300" width="80" height="50" as="geometry" />
        </mxCell>
        <mxCell id="HVvRkFTWR_BCbnAEF5Q8-40" style="edgeStyle=none;rounded=0;orthogonalLoop=1;jettySize=auto;html=1;exitX=0.5;exitY=0.5;exitDx=0;exitDy=0;exitPerimeter=0;entryX=0.1;entryY=0.74;entryDx=0;entryDy=0;entryPerimeter=0;" edge="1" parent="1" source="HVvRkFTWR_BCbnAEF5Q8-4" target="HVvRkFTWR_BCbnAEF5Q8-12">
          <mxGeometry relative="1" as="geometry" />
        </mxCell>
        <mxCell id="HVvRkFTWR_BCbnAEF5Q8-41" style="edgeStyle=none;rounded=0;orthogonalLoop=1;jettySize=auto;html=1;exitX=0.5;exitY=0.5;exitDx=0;exitDy=0;exitPerimeter=0;entryX=0.95;entryY=0.64;entryDx=0;entryDy=0;entryPerimeter=0;" edge="1" parent="1" source="HVvRkFTWR_BCbnAEF5Q8-5" target="HVvRkFTWR_BCbnAEF5Q8-17">
          <mxGeometry relative="1" as="geometry" />
        </mxCell>
      </root>
    </mxGraphModel>
  </diagram>
</mxfile>
